<svg height="512pt" viewBox="-13 0 511 512" width="512pt" xmlns="http://www.w3.org/2000/svg"><path d="m333.464844 379.125c16.519531 0 29.957031-13.425781 29.957031-29.929688 0-16.503906-13.4375-29.929687-29.957031-29.929687-16.523438 0-29.960938 13.425781-29.960938 29.929687 0 16.503907 13.4375 29.929688 29.960938 29.929688zm0-39.859375c5.488281 0 9.957031 4.453125 9.957031 9.929687 0 5.476563-4.46875 9.929688-9.957031 9.929688-5.492188 0-9.960938-4.453125-9.960938-9.929688 0-5.476562 4.46875-9.929687 9.960938-9.929687zm0 0"/><path d="m132.753906 359.195312h145.265625c5.523438 0 10-4.476562 10-10 0-5.523437-4.476562-10-10-10h-145.265625c-5.523437 0-10 4.476563-10 10 0 5.523438 4.476563 10 10 10zm0 0"/><path d="m333.464844 277.257812c16.519531 0 29.957031-13.429687 29.957031-29.933593 0-16.503907-13.4375-29.929688-29.957031-29.929688-16.523438 0-29.960938 13.425781-29.960938 29.929688 0 16.503906 13.4375 29.933593 29.960938 29.933593zm0-39.863281c5.488281 0 9.957031 4.457031 9.957031 9.929688 0 5.476562-4.46875 9.933593-9.957031 9.933593-5.492188 0-9.960938-4.457031-9.960938-9.933593 0-5.472657 4.46875-9.929688 9.960938-9.929688zm0 0"/><path d="m122.753906 247.324219c0 5.523437 4.476563 10 10 10h145.265625c5.523438 0 10-4.476563 10-10 0-5.519531-4.476562-10-10-10h-145.265625c-5.523437 0-10 4.480469-10 10zm0 0"/><path d="m334.019531 480.996094c16.519531 0 29.957031-13.425782 29.957031-29.929688s-13.4375-29.933594-29.957031-29.933594c-16.523437 0-29.960937 13.429688-29.960937 29.933594s13.4375 29.929688 29.960937 29.929688zm0-39.863282c5.492188 0 9.957031 4.457032 9.957031 9.933594 0 5.472656-4.464843 9.929688-9.957031 9.929688-5.492187 0-9.960937-4.457032-9.960937-9.929688 0-5.476562 4.46875-9.933594 9.960937-9.933594zm0 0"/><path d="m133.308594 461.066406h145.265625c5.523437 0 10-4.476562 10-10 0-5.523437-4.476563-10-10-10h-145.265625c-5.523438 0-10 4.476563-10 10 0 5.523438 4.476562 10 10 10zm0 0"/><path d="m191.203125 205.855469c5.523437 0 10-4.476563 10-10 0-5.523438-4.476563-10-10-10h-.023437c-5.523438 0-9.988282 4.476562-9.988282 10 0 5.523437 4.488282 10 10.011719 10zm0 0"/><path d="m455.148438 98.074219c-26.582032-27.109375-65.261719-37.800781-101.5-29.140625-25.179688-42.722656-70.730469-68.933594-120.761719-68.933594-60.097657 0-113.453125 38.550781-132.652344 94.75-52.507813-4.015625-99.734375 38.078125-99.734375 92.902344 0 43.527344 27.242188 68.675781 60.21875 68.675781h22.117188c.9375 6.355469-4.277344 26.335937 13.230468 41.933594-8.113281 7.222656-13.230468 17.730469-13.230468 29.414062v43.039063c0 11.816406 5.238281 22.425781 13.507812 29.65625-7.953125 7.214844-12.953125 17.621094-12.953125 29.175781v43.039063c0 21.730468 17.699219 39.414062 39.457031 39.414062h241.589844c21.757812 0 39.460938-17.683594 39.460938-39.417969v-43.035156c0-11.816406-5.242188-22.425781-13.511719-29.65625 7.953125-7.21875 12.957031-17.625 12.957031-29.175781v-43.039063c0-11.683593-5.121094-22.191406-13.234375-29.417969 17.535156-15.617187 12.292969-35.546874 13.234375-41.933593h16.601562c20.53125 0 39.800782-10.734375 50.289063-28.011719 24.988281-41.167969 19.453125-95.019531-15.085937-130.238281zm-90.710938 312.054687c10.730469 0 19.460938 8.710938 19.460938 19.417969v43.039063c0 10.703124-8.730469 19.414062-19.460938 19.414062h-241.589844c-10.726562 0-19.457031-8.710938-19.457031-19.414062v-43.039063c0-10.707031 8.726563-19.417969 19.457031-19.417969zm18.90625-82.453125v43.039063c0 10.707031-8.730469 19.417968-19.460938 19.417968-11.511718 0-230.511718 0-241.585937 0-10.730469 0-19.460937-8.710937-19.460937-19.417968v-43.039063c0-10.707031 8.730468-19.414062 19.460937-19.414062h241.585937c10.730469 0 19.460938 8.707031 19.460938 19.414062zm69.792969-109.742187c-6.882813 11.347656-19.601563 18.394531-33.191407 18.394531h-16.601562v-10.519531c0-21.734375-17.703125-39.417969-39.460938-39.417969h-132.703124c-5.523438 0-10 4.476563-10 10s4.476562 10 10 10h132.703124c9.390626 0 17.246094 6.667969 19.0625 15.507813.511719 2.488281.40625 45.742187.398438 46.945312 0 10.707031-8.730469 19.417969-19.460938 19.417969h-241.585937c-10.730469 0-19.460937-8.710938-19.460937-19.417969 0-28.039062 0-13.320312 0-43.039062 0-10.707032 8.730468-19.414063 19.460937-19.414063h28.882813c5.523437 0 10-4.480469 10-10 0-5.523437-4.476563-10-10-10h-28.882813c-21.761719 0-39.460937 17.679687-39.460937 39.414063v10.519531h-22.113282c-17.136718 0-32.007812-10.921875-37.007812-27.183594-14.457032-46.996094 20.929687-94.609375 70.027344-94.609375 17.316406 0 33.441406 6.625 45.546874 17.523438 4.097657 3.683593 10.421876 3.371093 14.121094-.746094 3.695313-4.101563 3.363282-10.425782-.742187-14.121094-9.449219-8.507812-20.59375-14.8125-32.574219-18.59375 34.027344-92.523438 160.722656-107.21875 214.230469-22.890625-17.683594 8.175781-33.023438 21.167969-43.953125 37.457031-3.078125 4.585938-1.855469 10.800782 2.730468 13.875 4.585938 3.078125 10.800782 1.855469 13.875-2.730468 31.285157-46.632813 96.253907-50.609376 133.894532-12.226563 28.007812 28.5625 32.597656 72.355469 12.265625 105.855469zm0 0"/></svg>