<svg height="496pt" viewBox="0 0 496 496" width="496pt" xmlns="http://www.w3.org/2000/svg"><path d="m456 128h-24v-128h-368v128h-24c-22.054688 0-40 17.945312-40 40v240c0 22.054688 17.945312 40 40 40h104v32h-32v16h272v-16h-32v-32h104c22.054688 0 40-17.945312 40-40v-240c0-22.054688-17.945312-40-40-40zm-139.648438 123.6875 9.265626-18.519531-30.785157-30.785157-18.519531 9.265626-6.542969-19.648438h-43.53125l-6.542969 19.648438-18.519531-9.265626-30.785156 30.785157 9.265625 18.519531-19.65625 6.542969v13.769531h-80v-192h336v192h-80v-13.769531zm-10.199218 71.992188-14.472656 14.472656-17.296876-8.648438-3.460937 1.550782c-.992187.441406-1.992187.839843-3.027344 1.234374l-3.542969 1.34375-6.121093 18.367188h-20.46875l-6.121094-18.367188-3.542969-1.34375c-1.035156-.394531-2.035156-.800781-3.027344-1.234374l-3.460937-1.550782-17.296875 8.648438-14.472656-14.472656 8.648437-17.296876-1.550781-3.460937c-.441406-.992187-.839844-1.992187-1.234375-3.027344l-1.34375-3.542969-18.359375-6.121093v-20.46875l18.367188-6.121094 1.34375-3.542969c.394531-1.035156.800781-2.035156 1.234374-3.027344l1.550782-3.460937-8.648438-17.296875 14.472656-14.472656 17.296876 8.648437 3.460937-1.550781c.992187-.441406 1.992187-.839844 3.027344-1.234375l3.542969-1.34375 6.121093-18.359375h20.46875l6.121094 18.367188 3.542969 1.34375c1.035156.394531 2.035156.800781 3.027344 1.234374l3.460937 1.550782 17.296875-8.648438 14.472656 14.472656-8.648437 17.296876 1.550781 3.460937c.441406.992187.839844 1.992187 1.234375 3.027344l1.34375 3.542969 18.359375 6.121093v20.46875l-18.367188 6.121094-1.34375 3.542969c-.394531 1.035156-.800781 2.035156-1.234374 3.027344l-1.550782 3.460937zm109.847656-307.679688v48h-336v-48zm-376 128h24v144h96v13.769531l19.648438 6.542969-9.265626 18.519531 30.785157 30.785157 18.519531-9.265626 6.542969 19.648438h43.53125l6.542969-19.648438 18.519531 9.265626 30.785156-30.785157-9.265625-18.519531 19.65625-6.542969v-13.769531h96v-144h24c13.230469 0 24 10.769531 24 24v216h-464v-216c0-13.230469 10.769531-24 24-24zm296 336h-176v-32h176zm120-48h-416c-13.230469 0-24-10.769531-24-24v-8h464v8c0 13.230469-10.769531 24-24 24zm0 0"/><path d="m96 32h16v16h-16zm0 0"/><path d="m128 32h16v16h-16zm0 0"/><path d="m160 32h16v16h-16zm0 0"/><path d="m248 240c-22.054688 0-40 17.945312-40 40s17.945312 40 40 40 40-17.945312 40-40-17.945312-40-40-40zm0 64c-13.230469 0-24-10.769531-24-24s10.769531-24 24-24 24 10.769531 24 24-10.769531 24-24 24zm0 0"/><path d="m96 96h160v16h-160zm0 0"/><path d="m96 128h160v16h-160zm0 0"/><path d="m96 160h160v16h-160zm0 0"/></svg>